<?xml version="1.0" encoding="utf-8"?>
<!-- Generator: Adobe Illustrator 21.0.0, SVG Export Plug-In . SVG Version: 6.00 Build 0)  -->
<svg version="1.1" xmlns="http://www.w3.org/2000/svg" xmlns:xlink="http://www.w3.org/1999/xlink" x="0px" y="0px"
	 viewBox="0 0 699 699" style="enable-background:new 0 0 699 699;" xml:space="preserve">
<style type="text/css">
	.st0{fill:#FBB03B;}
	.st1{fill:#8CC63F;}
	.st2{fill:#00A99D;}
	.st3{fill:#1B1464;}
	.st4{fill:#9E005D;}
	.st5{fill:#F15A24;}
	.st6{fill:#F7931E;}
	.st7{fill:#662D91;}
	.st8{fill:#009245;}
	.st9{fill:#0000FF;}
	.st10{fill:#FFFF00;}
	.st11{fill:#FF0000;}
</style>
<g id="Layer_1">
	<g>
		<g>
			<g id="XMLID_1_">
				<g>
					<path class="st0" d="M347,350L46.1,523.8l-0.1,0.1C16.4,472.7-0.5,413.3-0.5,350H347z"/>
					<path class="st1" d="M173.2,49.1L347,350L46.1,176.2l-0.1-0.1C76.4,123.4,120.4,79.4,173.2,49.1L173.2,49.1z"/>
					<path class="st2" d="M520.8,49L520.8,49L347,350V2.5C410.3,2.5,469.7,19.4,520.8,49z"/>
					<path class="st3" d="M694.5,350H347l300.9-173.8l0.1-0.1C677.6,227.3,694.5,286.7,694.5,350z"/>
					<path class="st4" d="M647.9,523.8L647.9,523.8c-30.4,52.8-74.4,96.8-127.1,127.3l-0.1-0.1L347,350L647.9,523.8z"/>
					<path class="st5" d="M347,350v347.5c-63.3,0-122.7-16.9-173.8-46.5l0.1-0.1L347,350z"/>
					<path class="st6" d="M347,350L173.2,650.9l-0.1,0.1C120.4,620.5,76.4,576.6,46,523.8l0.1-0.1L347,350z"/>
					<path class="st7" d="M347,350h347.5c0,63.3-16.9,122.7-46.5,173.8l-0.1-0.1L347,350z"/>
					<path class="st8" d="M347,2.5V350L173.2,49.1l-0.1-0.1C224.3,19.4,283.7,2.5,347,2.5z"/>
					<path class="st9" d="M648,176.2L648,176.2L347,350L520.8,49.1l0.1-0.1C573.6,79.4,617.5,123.4,648,176.2z"/>
					<path class="st10" d="M347,350H-0.5c0-63.3,16.9-122.7,46.5-173.8l0.1,0.1L347,350z"/>
					<path class="st11" d="M520.8,650.9L520.8,650.9c-51,29.7-110.4,46.6-173.8,46.6V350L520.8,650.9z"/>
				</g>
			</g>
		</g>
	</g>
</g>
<g id="Layer_2">
	<g>
		<path class="st7" d="M-380.8,649.2c0.9-1.9,8.6-17.2,17.6-22.8c0.3-0.2,0.5-0.6,0.5-0.9c-0.2-2.3-0.5-10.7,3.4-12.7
			c3.6-1.9,5.8-0.2,6.7,2.2c0.3,0.7,1.2,0.9,1.7,0.3c2-2.3,5.9-6.7,10.1-10.4c0.2-0.2,0.3-0.4,0.3-0.7c0.1-3,2.1-21.5,32.6-45.8
			c0.1,0,0.1-0.1,0.1-0.1c0.6-0.7,4.6-5.8-0.3-14.3c0-0.1-0.1-0.1-0.1-0.2c-0.6-2.2-11.8-37-54.2-18.9c-1.7,0.7-3.2,2.1-4,3.8
			c-2.7,5.4-7,16.5,14,19.7c24.1,3.8,13.9-13.3,12.3-15.7c-0.1-0.2-0.2-0.4-0.2-0.7c0.1-1,0.7-3.5,3.7,1c3.6,5.5,3.2,13.1-0.1,16.3
			c-5.2,5.1-19.7,4-30-2.8c-11.8-7.8-1.6-22.9,0.3-24c2.3-1.2,21.8-12.2,39.5-5.6c14.9,5.6,23.7,25.9,26.1,32.1c0.4,1,1.8,0.8,2-0.2
			c0.1-0.6,0.1-1.4-0.1-2.4c-0.6-3.5,3-3.1,3.7-3c0.1,0,0.2,0,0.3,0c0.6-0.1,3.2-0.3,4.1,0.2c1,0.6,2-1.6,3.4-1.3
			c0.8,0.2,0.8,0.8,0.7,1.3c-0.1,0.4,0.1,0.8,0.4,1c0.7,0.5,1.8,1.5,2.2,3c0.1,0.3,0.3,0.6,0.6,0.7c0.6,0.3,1.6,0.9,0.9,1.7
			c-1,1.1-1.9,0.5-1.9,0.5s1.9,1.1,1.9,1.6c0,0.5,0.2,3-2.4,1.5c-0.1-0.1-0.2-0.1-0.4-0.1c-0.7-0.1-3.1-0.6-2.5-3.7
			c0.6-3-3.6-2.2-5.1-1.8c-0.3,0.1-0.6,0.3-0.7,0.6c-0.4,0.8-0.8,2.5,0.6,3.9c1.9,2,5.1,9.2,3.1,13.6c-1.9,4.4,0.5,9.1-3.2,19.7
			c-0.1,0.2-0.1,0.5,0,0.7c0.4,1.2,1.8,5.5,1.3,8c-0.1,0.6,0.2,1.1,0.8,1.2c0.9,0.2,2,0.6,2.4,1.7c0.8,1.8-6.1,9.9-3.3,14
			c0.2,0.2,0.2,0.5,0.1,0.8c-0.1,0.5-0.4,1-1.4,0.6c-0.5-0.2-1.1,0-1.3,0.4c-0.9,1.7-2.9,5.2-3.9,5.5c-1.3,0.3-1.5,1.6-2.1,1.4
			c-0.6-0.2-2.9-0.2-2.9-1.3c0-1.1,4.2-4.2,6.1-8.5c1.7-3.9,3.1-5.9,2.6-8.6c-0.1-0.5-0.6-0.9-1.1-0.9l-1.5,0.1
			c-0.4,0-0.7,0.3-0.9,0.6c-1.1,2.8-6.2,15.2-11.6,21c-0.3,0.3-0.4,0.8-0.1,1.2c0.5,0.9,2,2.6,6.1,4.9c0.1,0,0.1,0.1,0.2,0.1
			c0.6,0.2,3.6,1.3,1.2,3.8c-2.6,2.8,0.5,5.9,0.2,7.5c-0.4,1.6-1.8,1.6-2.3,0.3c-0.6-1.3-2.2-1.5-2.4-2.6c-0.3-1.1,1.7-4.6,0.2-5.5
			c-1.3-0.8-7.2,0-8.6,0.2c-0.2,0-0.4,0.1-0.6,0.3c-1.1,1.1-6.2,5.7-12.6,7c-0.3,0.1-0.5,0.2-0.6,0.4c-1,1.3-4.4,6.2-4.9,8.9
			c0,0.3-0.2,0.6-0.5,0.7c-0.3,0.2-0.8,0.4-1.1,0.2c-0.6-0.4,0.4,0.5,0.3,1.3s-1.5,0.6-1,3.7s-2.4,0.1-3.3,0c-0.9,0-3.7,0-3.5,2.9
			c0,0.3,0,0.5,0,0.7c-0.1,1.2-1.8,1.3-2,0.1c-0.3-1.6-0.4-3.9,0.5-4.3c1.1-0.5,2.5-1.1,3.2-1.4c0.3-0.1,0.5-0.3,0.6-0.6
			c0.5-1.4,1.9-5.6-1.5-7.5c-0.3-0.2-0.6-0.2-0.9,0c-1.4,0.6-5.6,2.5-8.2,2.2c-3-0.4-4.2,2.9-13.9,5.7c-0.2,0-0.3,0.1-0.4,0.2
			c-0.7,0.7-2.9,3.1-1.9,5.3c0,0,0,0.1,0,0.1c0.4,1.1-0.9,1.9-1.7,1.1c-0.8-0.8-1.8-1.6-2.8-1.7c-2.2-0.2-7.9,0-8.1-2.3
			c-0.2-2.1,5.6-0.4,7,0c0.2,0.1,0.4,0.1,0.7,0c0.5-0.2,1.3-0.6,1.1-1.3c-0.2-0.9-2.3,1.1-4.8-1.1c-0.2-0.2-0.5-0.3-0.8-0.2
			c-1.1,0.2-3.9,0.2-3.8-3.2C-380.9,649.5-380.8,649.4-380.8,649.2z"/>
	</g>
	<g>
		<path class="st4" d="M-479.3,755.4c1.7-1.2,15.7-11.1,26.3-11.9c0.4,0,0.7-0.3,0.8-0.6c1-2.1,4.6-9.6,9-9.6c4.1,0,5.2,2.6,4.9,5.1
			c-0.1,0.8,0.7,1.4,1.4,1.1c2.8-1.1,8.4-3.2,13.8-4.5c0.3-0.1,0.5-0.2,0.6-0.5c1.5-2.6,12-18,50.3-25.1c0.1,0,0.1,0,0.2-0.1
			c0.8-0.3,6.8-3,6.5-12.7c0-0.1,0-0.2,0-0.2c0.4-2.2,7-38.2-38.9-42.1c-1.9-0.2-3.8,0.4-5.3,1.5c-4.9,3.5-13.9,11.3,3.1,24
			c19.5,14.7,18.5-5.2,18.2-8.1c0-0.2,0-0.5,0.2-0.7c0.6-0.9,2.3-2.7,2.8,2.6c0.6,6.5-3.3,13.1-7.7,14.4c-7,2.1-19.3-5.8-25.2-16.6
			c-6.7-12.4,9.3-21,11.6-21c2.6,0,25-0.6,37.5,13.6c10.6,11.9,8.8,34,8,40.6c-0.1,1,1.2,1.6,1.8,0.7c0.4-0.5,0.7-1.2,1-2.2
			c1.1-3.4,4.1-1.3,4.7-0.9c0.1,0.1,0.2,0.1,0.2,0.1c0.6,0.2,3,1.2,3.5,2.1c0.6,1.1,2.6-0.5,3.6,0.4c0.6,0.5,0.3,1.1,0,1.5
			c-0.3,0.3-0.3,0.7-0.1,1.1c0.4,0.8,0.9,2.2,0.5,3.6c-0.1,0.3,0,0.6,0.2,0.9c0.4,0.5,1,1.5,0,1.9c-1.4,0.5-1.9-0.5-1.9-0.5
			s1.2,1.8,1,2.3c-0.2,0.4-1.2,2.8-2.8,0.2c-0.1-0.1-0.2-0.2-0.3-0.3c-0.6-0.4-2.5-2-0.5-4.4c2-2.4-2.2-3.6-3.6-4
			c-0.3-0.1-0.6,0-0.9,0.2c-0.7,0.5-1.9,1.8-1.4,3.7c0.7,2.6,0.2,10.5-3.7,13.5c-3.8,3-3.8,8.2-12.1,15.9c-0.2,0.2-0.3,0.4-0.3,0.6
			c-0.2,1.3-1,5.7-2.6,7.7c-0.4,0.4-0.3,1.1,0.1,1.4c0.7,0.6,1.5,1.5,1.4,2.6c-0.1,2-10,5.9-9.5,10.8c0,0.3-0.1,0.6-0.2,0.8
			c-0.3,0.4-0.9,0.7-1.5-0.2c-0.3-0.4-0.9-0.5-1.4-0.2c-1.6,1.1-5,3.2-6,3c-1.3-0.3-2.1,0.7-2.5,0.3c-0.4-0.5-2.4-1.5-1.9-2.5
			c0.5-1,5.7-1.8,9.3-4.7c3.3-2.6,5.5-3.7,6.3-6.4c0.2-0.5-0.1-1.1-0.6-1.3l-1.4-0.6c-0.4-0.2-0.8-0.1-1.1,0.2
			c-2.3,2-12.6,10.5-20.1,13c-0.4,0.1-0.7,0.6-0.7,1c0.1,1.1,0.6,3.2,3.1,7.1c0,0.1,0.1,0.1,0.1,0.2c0.4,0.4,2.6,2.8-0.7,4
			c-3.6,1.3-2.3,5.4-3.3,6.7s-2.3,0.6-2.2-0.8c0.1-1.4-1.2-2.3-0.9-3.4c0.3-1.1,3.6-3.3,2.7-4.8c-0.8-1.3-6.3-3.3-7.7-3.8
			c-0.2-0.1-0.4-0.1-0.6,0c-1.5,0.4-8.2,2.2-14.4,0.3c-0.2-0.1-0.5-0.1-0.7,0.1c-1.4,0.7-6.8,3.4-8.5,5.6c-0.2,0.2-0.4,0.4-0.7,0.4
			c-0.4,0-0.9,0-1.1-0.4c-0.4-0.6,0.1,0.7-0.3,1.3c-0.4,0.7-1.6-0.2-2.6,2.8s-2.2-1.1-2.9-1.5c-0.8-0.5-3.3-1.7-4.4,0.9
			c-0.1,0.2-0.2,0.4-0.3,0.6c-0.6,1-2.2,0.3-1.8-0.9c0.5-1.5,1.4-3.6,2.5-3.6c1.2,0,2.7,0.2,3.4,0.3c0.3,0,0.6,0,0.8-0.2
			c1.1-0.9,4.3-4.1,2.2-7.3c-0.2-0.3-0.5-0.4-0.8-0.4c-1.5-0.1-6.1-0.4-8.2-1.9c-2.5-1.8-5.1,0.6-14.9-1.5c-0.2,0-0.3,0-0.5,0
			c-0.9,0.3-4,1.3-4.2,3.8c0,0,0,0.1,0,0.1c-0.1,1.1-1.7,1.3-2,0.2c-0.3-1.1-0.8-2.3-1.7-2.9c-1.9-1.2-7-3.7-6-5.9
			c0.8-1.9,5.1,2.3,6.2,3.3c0.2,0.2,0.4,0.3,0.6,0.3c0.5,0.1,1.4,0.1,1.6-0.6c0.2-0.9-2.5-0.1-3.8-3.2c-0.1-0.3-0.3-0.5-0.6-0.6
			c-1.1-0.4-3.6-1.6-1.9-4.6C-479.5,755.6-479.4,755.5-479.3,755.4z"/>
	</g>
	<g>
		<path class="st11" d="M-620.2,796.3c2.1-0.3,19.1-2.2,28.7,2.3c0.3,0.2,0.7,0.1,1-0.1c1.9-1.4,8.7-6.2,12.5-4.1
			c3.6,2,3.4,4.8,1.8,6.8c-0.5,0.6-0.1,1.5,0.7,1.6c3,0.4,8.9,1.3,14.3,2.8c0.3,0.1,0.6,0,0.8-0.1c2.6-1.5,19.2-10,56.2,2.4
			c0.1,0,0.1,0,0.2,0c0.9,0.1,7.4,0.6,11.8-8c0-0.1,0.1-0.1,0.1-0.2c1.5-1.7,24.6-30.1-13.7-55.7c-1.6-1.1-3.5-1.5-5.4-1.3
			c-6,0.7-17.6,3.1-8.9,22.5c10,22.3,18.7,4.4,19.9,1.7c0.1-0.2,0.3-0.4,0.5-0.5c0.9-0.5,3.3-1.3,1.2,3.6c-2.6,6-9.2,9.8-13.7,8.9
			c-7.2-1.6-14.1-14.4-14-26.7c0.1-14.1,18.3-13.9,20.3-12.8c2.2,1.2,22.1,11.6,26.3,30c3.5,15.6-8.8,34-12.6,39.4
			c-0.6,0.8,0.3,2,1.2,1.5c0.6-0.3,1.2-0.7,1.9-1.4c2.6-2.4,4.2,0.8,4.6,1.5c0,0.1,0.1,0.2,0.1,0.2c0.4,0.5,2,2.5,2,3.6
			c0,1.2,2.5,0.8,3,2.1c0.3,0.8-0.2,1.1-0.7,1.3c-0.4,0.1-0.6,0.5-0.7,0.9c0,0.9-0.3,2.4-1.3,3.4c-0.2,0.2-0.3,0.5-0.3,0.8
			c0.1,0.7,0.1,1.8-0.9,1.6c-1.5-0.2-1.4-1.4-1.4-1.4s0.2,2.2-0.3,2.5c-0.4,0.3-2.4,1.8-2.6-1.2c0-0.1,0-0.3-0.1-0.4
			c-0.3-0.6-1.2-2.9,1.7-4.1c2.9-1.1-0.2-4.2-1.2-5.2c-0.2-0.2-0.5-0.3-0.9-0.3c-0.9,0.1-2.5,0.7-3,2.6c-0.6,2.6-4.9,9.3-9.7,10
			c-4.7,0.8-7.3,5.4-18.3,8.1c-0.2,0.1-0.4,0.2-0.6,0.4c-0.8,1-3.6,4.5-6,5.5c-0.5,0.2-0.8,0.8-0.6,1.3c0.3,0.8,0.6,2-0.1,3
			c-1.1,1.7-11.6,0.3-13.5,4.9c-0.1,0.3-0.3,0.5-0.6,0.6c-0.5,0.2-1.1,0.2-1.2-0.9c-0.1-0.5-0.6-0.9-1.1-0.9c-2,0.2-6,0.4-6.7-0.3
			c-1-0.9-2.2-0.4-2.3-1c-0.1-0.6-1.4-2.5-0.5-3.1c0.9-0.6,5.8,1.2,10.4,0.4c4.2-0.7,6.6-0.6,8.6-2.5c0.4-0.4,0.4-1,0.1-1.4
			l-0.9-1.2c-0.2-0.3-0.6-0.5-1-0.4c-3,0.6-16.1,3.1-23.9,1.7c-0.4-0.1-0.9,0.1-1.1,0.6c-0.5,1-1.1,3.1-0.7,7.7c0,0.1,0,0.1,0,0.2
			c0.2,0.6,0.9,3.7-2.5,3.1c-3.8-0.7-4.6,3.7-6.2,4.2c-1.6,0.6-2.3-0.6-1.5-1.8c0.7-1.2,0.1-2.6,0.8-3.4s4.8-1.1,4.7-2.9
			c-0.1-1.5-3.9-6-4.9-7.1c-0.1-0.2-0.3-0.3-0.5-0.3c-1.5-0.3-8.2-2.1-12.8-6.7c-0.2-0.2-0.4-0.3-0.7-0.3c-1.6-0.1-7.6-0.3-10.1,0.8
			c-0.3,0.1-0.6,0.1-0.8,0c-0.3-0.2-0.8-0.4-0.8-0.8c0-0.7-0.2,0.6-0.9,1s-1.3-0.9-3.6,1.2c-2.3,2.1-1.4-2-1.8-2.7
			c-0.5-0.8-2-3.1-4.3-1.3c-0.2,0.2-0.4,0.3-0.6,0.4c-1.1,0.6-2.1-0.8-1.2-1.7c1.2-1.1,3-2.5,3.9-1.9c1,0.6,2.3,1.5,2.9,1.9
			c0.2,0.2,0.5,0.2,0.8,0.2c1.4-0.3,5.7-1.5,5.5-5.3c0-0.3-0.2-0.6-0.5-0.8c-1.3-0.8-5.2-3.4-6.3-5.7c-1.3-2.7-4.7-2-12.4-8.5
			c-0.1-0.1-0.3-0.2-0.4-0.2c-0.9-0.2-4.1-0.8-5.5,1.3c0,0,0,0.1-0.1,0.1c-0.6,1-2.1,0.3-1.8-0.8c0.3-1.1,0.4-2.4-0.1-3.3
			c-1-2-4.3-6.6-2.5-8.1c1.6-1.3,3.4,4.5,3.8,5.9c0.1,0.2,0.2,0.4,0.4,0.5c0.4,0.3,1.2,0.7,1.7,0.2c0.6-0.7-2.1-1.3-1.7-4.6
			c0-0.3-0.1-0.6-0.3-0.8c-0.8-0.9-2.3-3.1,0.6-4.9C-620.4,796.4-620.3,796.3-620.2,796.3z"/>
	</g>
	<g>
		<path class="st5" d="M-761.4,761.1c1.9,0.9,17.5,8,23.5,16.7c0.2,0.3,0.6,0.5,0.9,0.4c2.3-0.3,10.6-0.9,12.8,2.9
			c2,3.5,0.4,5.8-2,6.8c-0.7,0.3-0.9,1.3-0.3,1.8c2.4,1.9,7,5.7,10.8,9.7c0.2,0.2,0.5,0.3,0.7,0.3c3,0,21.6,1.3,47,30.9
			c0,0,0.1,0.1,0.1,0.1c0.7,0.6,6,4.4,14.3-0.8c0.1,0,0.1-0.1,0.2-0.1c2.1-0.7,36.6-13.2,16.8-54.8c-0.8-1.7-2.2-3.1-3.9-3.9
			c-5.5-2.5-16.7-6.4-19.2,14.7c-2.8,24.3,13.8,13.4,16.2,11.7c0.2-0.1,0.4-0.2,0.7-0.2c1,0.1,3.5,0.6-0.9,3.7
			c-5.3,3.8-13,3.7-16.3,0.6c-5.3-5-4.7-19.6,1.7-30.1c7.3-12.1,22.9-2.5,24-0.6c1.3,2.2,13.1,21.3,7.1,39.2
			c-5,15.1-25,24.7-31.1,27.3c-1,0.4-0.8,1.8,0.3,2c0.6,0.1,1.4,0,2.4-0.2c3.5-0.8,3.2,2.9,3.1,3.6c0,0.1,0,0.2,0,0.3
			c0.1,0.6,0.4,3.2-0.1,4.1c-0.6,1.1,1.7,2,1.5,3.3c-0.1,0.8-0.8,0.8-1.3,0.8c-0.4-0.1-0.8,0.1-1,0.4c-0.5,0.7-1.5,1.9-2.9,2.3
			c-0.3,0.1-0.5,0.3-0.7,0.6c-0.3,0.6-0.8,1.6-1.6,0.9c-1.2-1-0.5-1.9-0.5-1.9s-1,2-1.5,2c-0.5,0-3,0.4-1.6-2.3
			c0.1-0.1,0.1-0.3,0.1-0.4c0-0.7,0.4-3.2,3.6-2.6c3.1,0.5,2-3.7,1.6-5.1c-0.1-0.3-0.3-0.5-0.6-0.7c-0.8-0.3-2.5-0.7-3.9,0.7
			c-1.9,2-9,5.4-13.5,3.6c-4.5-1.8-9,0.9-19.8-2.5c-0.2-0.1-0.5-0.1-0.7,0c-1.2,0.5-5.4,2-8,1.6c-0.6-0.1-1.1,0.3-1.2,0.8
			c-0.1,0.9-0.5,2-1.6,2.5c-1.8,0.9-10.1-5.7-14.1-2.8c-0.2,0.2-0.5,0.2-0.8,0.2c-0.5-0.1-1-0.4-0.6-1.4c0.2-0.5,0-1.1-0.5-1.3
			c-1.8-0.9-5.3-2.7-5.6-3.7c-0.4-1.3-1.7-1.4-1.5-2c0.2-0.6,0.1-2.9,1.2-2.9c1.1-0.1,4.4,4,8.7,5.7c3.9,1.5,6,2.9,8.7,2.3
			c0.5-0.1,0.9-0.6,0.8-1.1l-0.2-1.5c0-0.4-0.3-0.7-0.7-0.8c-2.9-1-15.4-5.6-21.4-10.8c-0.3-0.3-0.8-0.3-1.2-0.1
			c-0.9,0.6-2.5,2.1-4.6,6.3c0,0.1-0.1,0.1-0.1,0.2c-0.2,0.6-1.2,3.7-3.8,1.4c-2.9-2.5-5.8,0.8-7.5,0.5c-1.6-0.3-1.7-1.7-0.4-2.3
			c1.2-0.6,1.4-2.2,2.5-2.5c1.1-0.3,4.7,1.5,5.5,0c0.7-1.3-0.3-7.2-0.6-8.6c0-0.2-0.1-0.4-0.3-0.6c-1.1-1.1-6-6-7.5-12.3
			c-0.1-0.3-0.2-0.5-0.4-0.6c-1.3-0.9-6.3-4.2-9.1-4.5c-0.3,0-0.6-0.2-0.7-0.4c-0.2-0.3-0.4-0.8-0.2-1.1c0.3-0.6-0.5,0.4-1.3,0.4
			c-0.8,0-0.7-1.5-3.7-0.9c-3,0.6-0.2-2.4-0.2-3.3c0-0.9-0.2-3.7-3-3.4c-0.3,0-0.5,0-0.7,0c-1.2,0-1.4-1.8-0.2-2
			c1.6-0.3,3.8-0.6,4.4,0.3c0.6,1.1,1.2,2.5,1.5,3.1c0.1,0.3,0.3,0.5,0.6,0.6c1.4,0.5,5.7,1.7,7.4-1.7c0.1-0.3,0.1-0.6,0-0.9
			c-0.7-1.3-2.7-5.5-2.5-8.1c0.3-3-3.1-4.1-6.2-13.7c-0.1-0.2-0.1-0.3-0.3-0.4c-0.7-0.7-3.2-2.8-5.4-1.7c0,0-0.1,0-0.1,0
			c-1,0.5-2-0.8-1.2-1.7c0.8-0.8,1.6-1.9,1.6-2.9c0.1-2.2-0.3-7.9,2-8.2c2.1-0.3,0.6,5.6,0.2,7c-0.1,0.2,0,0.4,0,0.7
			c0.2,0.5,0.6,1.2,1.3,1c0.9-0.3-1.1-2.3,0.9-4.9c0.2-0.2,0.3-0.5,0.2-0.8c-0.2-1.1-0.4-3.9,3-3.9
			C-761.7,761-761.6,761.1-761.4,761.1z"/>
	</g>
	<g>
		<path class="st6" d="M-866.1,660.1c1.2,1.7,11.2,15.6,12,26.2c0,0.4,0.3,0.7,0.6,0.8c2.1,0.9,9.6,4.6,9.6,8.9
			c0,4.1-2.5,5.2-5.1,4.9c-0.8-0.1-1.4,0.7-1.1,1.4c1.1,2.8,3.2,8.4,4.5,13.8c0.1,0.3,0.2,0.5,0.5,0.6c2.6,1.5,18.1,11.9,25.3,50.2
			c0,0.1,0,0.1,0.1,0.2c0.3,0.8,3,6.8,12.8,6.4c0.1,0,0.2,0,0.2,0c2.2,0.4,38.3,6.8,42-39.1c0.2-1.9-0.4-3.8-1.5-5.3
			c-3.5-4.9-11.3-13.9-24,3.1c-14.6,19.6,5.3,18.5,8.1,18.2c0.2,0,0.5,0,0.7,0.2c0.9,0.6,2.7,2.2-2.6,2.8
			c-6.5,0.7-13.1-3.3-14.4-7.7c-2.1-7,5.7-19.3,16.5-25.2c12.4-6.8,21,9.3,21,11.5c0,2.6,0.7,25-13.4,37.5
			c-11.9,10.6-34,8.9-40.6,8.1c-1-0.1-1.6,1.2-0.7,1.8c0.5,0.4,1.2,0.7,2.2,1c3.4,1.1,1.4,4.1,0.9,4.7c-0.1,0.1-0.1,0.2-0.1,0.2
			c-0.2,0.6-1.2,3-2.1,3.5c-1,0.6,0.5,2.6-0.4,3.6c-0.5,0.6-1.1,0.4-1.5,0c-0.3-0.3-0.7-0.3-1.1-0.1c-0.8,0.4-2.2,0.9-3.6,0.5
			c-0.3-0.1-0.6,0-0.9,0.2c-0.5,0.4-1.5,1-1.9,0c-0.5-1.4,0.5-1.9,0.5-1.9s-1.8,1.2-2.3,1c-0.4-0.2-2.8-1.2-0.2-2.8
			c0.1-0.1,0.2-0.2,0.3-0.3c0.4-0.6,2-2.5,4.4-0.5c2.4,2,3.6-2.2,4-3.6c0.1-0.3,0-0.6-0.2-0.9c-0.5-0.7-1.8-1.9-3.7-1.3
			c-2.6,0.8-10.5,0.2-13.5-3.6c-3-3.8-8.3-3.7-15.9-12.1c-0.2-0.2-0.4-0.3-0.6-0.3c-1.3-0.2-5.7-1-7.7-2.6c-0.4-0.4-1.1-0.3-1.4,0.1
			c-0.6,0.7-1.5,1.5-2.6,1.4c-2-0.1-5.9-10-10.8-9.5c-0.3,0-0.6-0.1-0.8-0.2c-0.4-0.3-0.7-0.9,0.2-1.5c0.4-0.3,0.5-0.9,0.2-1.4
			c-1.1-1.6-3.3-5-3-6c0.3-1.3-0.8-2.1-0.3-2.5c0.5-0.4,1.5-2.4,2.5-1.9c1,0.5,1.8,5.7,4.7,9.3c2.6,3.3,3.8,5.5,6.4,6.3
			c0.5,0.2,1.1-0.1,1.3-0.6l0.6-1.4c0.2-0.4,0.1-0.8-0.2-1.1c-2-2.3-10.6-12.5-13.1-20.1c-0.1-0.4-0.6-0.7-1-0.7
			c-1.1,0.1-3.2,0.6-7.1,3.1c-0.1,0-0.1,0.1-0.2,0.1c-0.4,0.4-2.8,2.6-4-0.7c-1.3-3.6-5.4-2.2-6.7-3.3s-0.6-2.3,0.8-2.2
			c1.4,0.1,2.3-1.2,3.4-0.9c1.1,0.3,3.3,3.6,4.8,2.7c1.3-0.8,3.3-6.4,3.8-7.8c0.1-0.2,0.1-0.4,0-0.6c-0.4-1.5-2.2-8.2-0.3-14.4
			c0.1-0.2,0.1-0.5-0.1-0.7c-0.7-1.4-3.4-6.8-5.6-8.5c-0.2-0.2-0.4-0.4-0.4-0.7c0-0.4,0-0.9,0.4-1.1c0.6-0.4-0.7,0.1-1.3-0.3
			s0.1-1.6-2.8-2.6c-2.9-1,1-2.2,1.5-2.9c0.4-0.8,1.7-3.3-0.9-4.4c-0.2-0.1-0.4-0.2-0.6-0.3c-1-0.6-0.3-2.2,0.9-1.8
			c1.5,0.5,3.6,1.4,3.6,2.5c0,1.2-0.2,2.7-0.3,3.4c0,0.3,0.1,0.6,0.2,0.8c0.9,1.1,4.1,4.3,7.3,2.2c0.3-0.2,0.4-0.5,0.4-0.8
			c0.1-1.5,0.4-6.1,1.9-8.2c1.8-2.5-0.6-5.1,1.4-14.9c0-0.2,0-0.3,0-0.5c-0.3-0.9-1.4-4-3.8-4.2c0,0-0.1,0-0.1,0
			c-1.1-0.1-1.3-1.7-0.2-2c1.1-0.3,2.3-0.8,2.8-1.7c1.2-1.9,3.7-7,5.8-6.1c1.9,0.8-2.2,5.1-3.3,6.2c-0.2,0.2-0.3,0.4-0.3,0.6
			c-0.1,0.5-0.1,1.4,0.6,1.6c0.9,0.2,0.1-2.5,3.2-3.8c0.3-0.1,0.5-0.3,0.6-0.6c0.4-1.1,1.6-3.6,4.6-1.9
			C-866.3,659.9-866.2,660-866.1,660.1z"/>
	</g>
	<g>
		<path class="st0" d="M-908.2,518.8c0.3,2.1,2.9,19-1.1,28.8c-0.1,0.3-0.1,0.7,0.2,1c1.5,1.8,6.6,8.4,4.6,12.3
			c-1.8,3.6-4.6,3.5-6.7,2.1c-0.6-0.4-1.5,0-1.6,0.7c-0.3,3-0.9,8.9-2.2,14.4c-0.1,0.3,0,0.6,0.1,0.8c1.7,2.5,10.8,18.8,0,56.2
			c0,0.1,0,0.1,0,0.2c-0.1,0.9-0.3,7.4,8.5,11.5c0.1,0,0.1,0.1,0.2,0.1c1.8,1.4,31.1,23.3,55.1-16c1-1.6,1.4-3.5,1.1-5.4
			c-0.9-6-3.9-17.5-22.8-8c-21.8,10.9-3.6,18.9-0.9,19.9c0.2,0.1,0.4,0.2,0.5,0.5c0.5,0.9,1.4,3.2-3.6,1.3
			c-6.1-2.3-10.2-8.8-9.4-13.3c1.3-7.2,13.8-14.7,26.1-15.1c14.1-0.5,14.6,17.7,13.6,19.7c-1.1,2.3-10.6,22.6-28.9,27.5
			c-15.4,4.1-34.4-7.4-39.9-11c-0.9-0.6-2,0.4-1.5,1.3c0.3,0.5,0.7,1.2,1.5,1.9c2.6,2.5-0.6,4.3-1.3,4.6c-0.1,0-0.2,0.1-0.2,0.2
			c-0.5,0.4-2.4,2.1-3.5,2.2c-1.2,0.1-0.7,2.5-2,3c-0.7,0.3-1.1-0.2-1.3-0.6c-0.2-0.4-0.5-0.6-0.9-0.6c-0.9,0-2.4-0.2-3.5-1.2
			c-0.2-0.2-0.6-0.3-0.9-0.2c-0.7,0.1-1.8,0.2-1.7-0.8c0.2-1.5,1.3-1.5,1.3-1.5s-2.2,0.2-2.5-0.2c-0.3-0.4-1.9-2.3,1.1-2.6
			c0.1,0,0.3-0.1,0.4-0.1c0.6-0.4,2.9-1.4,4.1,1.5c1.2,2.8,4.2-0.3,5.2-1.5c0.2-0.2,0.3-0.6,0.2-0.9c-0.2-0.9-0.8-2.5-2.7-2.9
			c-2.7-0.5-9.5-4.6-10.4-9.3c-1-4.7-5.7-7.1-8.8-17.9c-0.1-0.2-0.2-0.4-0.4-0.6c-1-0.7-4.6-3.4-5.7-5.8c-0.2-0.5-0.8-0.7-1.3-0.5
			c-0.8,0.4-2,0.6-3,0.1c-1.7-1-0.8-11.6-5.4-13.3c-0.3-0.1-0.5-0.3-0.6-0.6c-0.2-0.4-0.2-1.1,0.8-1.3c0.5-0.1,0.9-0.6,0.8-1.1
			c-0.2-2-0.7-5.9,0-6.7c0.9-1,0.3-2.2,0.9-2.3s2.4-1.5,3.1-0.6c0.7,0.9-1,5.9,0,10.4c0.9,4.1,0.9,6.6,2.9,8.5
			c0.4,0.4,1,0.4,1.4,0.1l1.2-1c0.3-0.3,0.4-0.7,0.3-1c-0.7-3-3.8-15.9-2.7-23.8c0.1-0.5-0.2-0.9-0.6-1.1c-1-0.4-3.2-0.9-7.8-0.4
			c-0.1,0-0.1,0-0.2,0c-0.6,0.2-3.7,1-3.2-2.4c0.5-3.8-3.8-4.5-4.5-6s0.5-2.3,1.7-1.6c1.2,0.7,2.6,0,3.5,0.7s1.3,4.7,3.1,4.6
			c1.5-0.1,5.8-4.2,6.9-5.2c0.2-0.1,0.3-0.3,0.3-0.6c0.3-1.5,1.7-8.3,6.2-13c0.2-0.2,0.3-0.4,0.3-0.7c0-1.6,0-7.6-1.2-10.1
			c-0.1-0.3-0.2-0.6,0-0.8c0.1-0.4,0.4-0.8,0.8-0.8c0.7-0.1-0.6-0.2-1-0.9c-0.4-0.7,0.9-1.4-1.3-3.6c-2.2-2.2,1.9-1.5,2.7-2
			c0.8-0.5,3-2.2,1.2-4.4c-0.2-0.2-0.3-0.4-0.4-0.5c-0.6-1,0.8-2.1,1.6-1.2c1.1,1.1,2.6,2.9,2.1,3.8c-0.6,1.1-1.4,2.3-1.8,3
			c-0.2,0.2-0.2,0.5-0.1,0.8c0.3,1.4,1.7,5.7,5.5,5.2c0.3,0,0.6-0.2,0.7-0.5c0.7-1.3,3.1-5.3,5.4-6.5c2.7-1.4,1.8-4.8,8-12.7
			c0.1-0.1,0.2-0.3,0.2-0.4c0.2-0.9,0.6-4.2-1.5-5.4c0,0-0.1,0-0.1-0.1c-1-0.6-0.4-2.1,0.8-1.9c1.1,0.2,2.4,0.3,3.3-0.2
			c1.9-1.1,6.4-4.6,8-2.8c1.4,1.6-4.3,3.6-5.7,4c-0.2,0.1-0.4,0.2-0.5,0.4c-0.3,0.4-0.7,1.2-0.2,1.7c0.7,0.6,1.3-2.2,4.5-1.9
			c0.3,0,0.6-0.1,0.8-0.3c0.8-0.8,3-2.5,4.9,0.4C-908.2,518.5-908.2,518.7-908.2,518.8z"/>
	</g>
	<g>
		<path class="st10" d="M-870.6,378.1c-0.9,1.9-8,17.5-16.7,23.5c-0.3,0.2-0.5,0.6-0.4,0.9c0.3,2.3,0.9,10.6-2.9,12.8
			c-3.5,2-5.8,0.4-6.8-2c-0.3-0.7-1.3-0.9-1.8-0.3c-1.9,2.4-5.7,7-9.7,10.8c-0.2,0.2-0.3,0.5-0.3,0.7c0,3-1.3,21.6-30.9,47
			c0,0-0.1,0.1-0.1,0.1c-0.6,0.7-4.4,6,0.8,14.3c0,0.1,0.1,0.1,0.1,0.2c0.7,2.1,13.2,36.6,54.8,16.8c1.7-0.8,3.1-2.2,3.9-3.9
			c2.5-5.5,6.4-16.7-14.7-19.2c-24.3-2.8-13.4,13.8-11.7,16.2c0.1,0.2,0.2,0.4,0.2,0.7c-0.1,1-0.6,3.5-3.7-0.9
			c-3.8-5.3-3.7-13-0.6-16.3c5-5.3,19.6-4.7,30.1,1.7c12.1,7.4,2.5,22.9,0.6,24c-2.2,1.3-21.3,13.1-39.2,7.1
			c-15.1-5-24.7-25-27.3-31.1c-0.4-1-1.8-0.8-2,0.3c-0.1,0.6,0,1.4,0.2,2.4c0.8,3.5-2.9,3.2-3.6,3.1c-0.1,0-0.2,0-0.3,0
			c-0.6,0.1-3.2,0.4-4.1-0.1c-1.1-0.6-2,1.7-3.3,1.5c-0.8-0.1-0.8-0.8-0.8-1.3c0.1-0.4-0.1-0.8-0.4-1c-0.7-0.5-1.9-1.5-2.3-2.9
			c-0.1-0.3-0.3-0.5-0.6-0.7c-0.6-0.3-1.6-0.8-0.9-1.6c1-1.2,1.9-0.5,1.9-0.5s-2-1-2-1.5c0-0.5-0.4-3,2.3-1.6
			c0.1,0.1,0.3,0.1,0.4,0.1c0.7,0,3.2,0.4,2.6,3.6c-0.5,3.1,3.7,2,5.1,1.6c0.3-0.1,0.5-0.3,0.7-0.6c0.3-0.8,0.7-2.5-0.7-3.9
			c-2-1.9-5.4-9-3.6-13.5c1.8-4.5-0.9-9,2.5-19.8c0.1-0.2,0.1-0.5,0-0.7c-0.5-1.2-2-5.4-1.6-8c0.1-0.6-0.3-1.1-0.8-1.2
			c-0.9-0.1-2-0.5-2.5-1.6c-0.9-1.8,5.7-10.1,2.8-14.1c-0.2-0.2-0.2-0.5-0.2-0.8c0.1-0.5,0.4-1,1.4-0.6c0.5,0.2,1.1,0,1.3-0.5
			c0.9-1.8,2.7-5.3,3.7-5.6c1.3-0.4,1.4-1.7,2-1.5c0.6,0.2,2.9,0.1,2.9,1.2c0.1,1.1-4,4.4-5.7,8.7c-1.5,3.9-2.9,6-2.3,8.7
			c0.1,0.5,0.6,0.9,1.1,0.8l1.5-0.2c0.4,0,0.7-0.3,0.8-0.7c1-2.9,5.6-15.4,10.8-21.4c0.3-0.3,0.3-0.8,0.1-1.2
			c-0.6-0.9-2.1-2.5-6.3-4.6c-0.1,0-0.1-0.1-0.2-0.1c-0.6-0.2-3.7-1.2-1.4-3.8c2.5-2.9-0.8-5.8-0.5-7.5c0.3-1.6,1.7-1.6,2.3-0.4
			c0.6,1.2,2.2,1.4,2.5,2.5c0.3,1.1-1.5,4.7,0,5.5c1.3,0.7,7.2-0.3,8.6-0.6c0.2,0,0.4-0.1,0.6-0.3c1.1-1.1,6-6,12.3-7.5
			c0.3-0.1,0.5-0.2,0.6-0.4c0.9-1.3,4.2-6.3,4.5-9.1c0-0.3,0.2-0.6,0.4-0.7c0.3-0.2,0.8-0.4,1.1-0.2c0.6,0.3-0.4-0.5-0.4-1.3
			c0-0.8,1.5-0.7,0.9-3.7c-0.6-3,2.4-0.2,3.3-0.2s3.7-0.2,3.4-3c0-0.3,0-0.5,0-0.7c0-1.2,1.8-1.4,2-0.2c0.3,1.6,0.6,3.8-0.3,4.4
			c-1.1,0.6-2.5,1.2-3.1,1.5c-0.3,0.1-0.5,0.3-0.6,0.6c-0.5,1.4-1.7,5.7,1.7,7.4c0.3,0.1,0.6,0.1,0.9,0c1.3-0.7,5.5-2.7,8.1-2.5
			c3,0.3,4.1-3.1,13.7-6.2c0.2-0.1,0.3-0.1,0.4-0.3c0.7-0.7,2.8-3.2,1.7-5.4c0,0,0-0.1,0-0.1c-0.5-1,0.8-2,1.7-1.2
			c0.8,0.8,1.8,1.6,2.9,1.6c2.2,0.1,7.9-0.3,8.2,2c0.3,2.1-5.6,0.6-7,0.2c-0.2-0.1-0.4,0-0.7,0c-0.5,0.2-1.2,0.6-1,1.3
			c0.3,0.9,2.3-1.1,4.9,0.9c0.2,0.2,0.5,0.3,0.8,0.2c1.1-0.2,3.9-0.4,3.9,3C-870.5,377.9-870.6,378-870.6,378.1z"/>
	</g>
	<g>
		<path class="st1" d="M-771.1,271.9c-1.6,1.3-15.1,11.8-25.7,13.1c-0.4,0-0.7,0.3-0.8,0.6c-0.9,2.2-4.1,9.8-8.5,10
			c-4.1,0.2-5.4-2.3-5.1-4.9c0.1-0.8-0.7-1.4-1.4-1c-2.8,1.2-8.2,3.6-13.6,5.1c-0.3,0.1-0.5,0.3-0.6,0.5
			c-1.4,2.7-11.1,18.6-49.1,27.5c-0.1,0-0.1,0-0.2,0.1c-0.8,0.4-6.6,3.3-5.9,13c0,0.1,0,0.2,0,0.2c-0.3,2.2-5.1,38.5,40.9,40.2
			c1.9,0.1,3.8-0.5,5.2-1.7c4.7-3.7,13.4-11.9-4.2-23.8c-20.2-13.7-18.2,6.1-17.8,8.9c0,0.2,0,0.5-0.1,0.7c-0.6,0.9-2.1,2.8-2.9-2.5
			c-1-6.5,2.7-13.2,7-14.7c6.9-2.4,19.5,4.9,25.9,15.4c7.3,12.1-8.3,21.4-10.6,21.5c-2.5,0.1-24.9,1.8-38.1-11.8
			c-11.1-11.4-10.4-33.6-9.9-40.2c0.1-1-1.3-1.5-1.9-0.7c-0.3,0.5-0.7,1.2-0.9,2.2c-0.9,3.4-4,1.5-4.7,1.1c-0.1-0.1-0.2-0.1-0.2-0.1
			c-0.6-0.2-3-1.1-3.6-2c-0.7-1-2.5,0.6-3.6-0.2c-0.6-0.5-0.4-1.1-0.1-1.5c0.3-0.3,0.3-0.8,0.1-1.1c-0.4-0.8-1-2.2-0.7-3.6
			c0.1-0.3,0-0.6-0.2-0.9c-0.4-0.5-1-1.4-0.1-1.9c1.4-0.6,1.9,0.4,1.9,0.4s-1.3-1.8-1.1-2.2c0.2-0.5,1.1-2.8,2.8-0.3
			c0.1,0.1,0.2,0.2,0.3,0.3c0.6,0.4,2.6,1.8,0.7,4.4c-1.9,2.5,2.4,3.5,3.8,3.8c0.3,0.1,0.6,0,0.9-0.2c0.7-0.6,1.8-1.9,1.2-3.8
			c-0.9-2.6-0.6-10.5,3-13.7c3.6-3.1,3.4-8.4,11.3-16.5c0.2-0.2,0.3-0.4,0.3-0.6c0.1-1.3,0.7-5.7,2.2-7.8c0.3-0.5,0.2-1.1-0.2-1.4
			c-0.7-0.5-1.5-1.4-1.5-2.5c0-2,9.7-6.3,9-11.2c0-0.3,0-0.6,0.2-0.8c0.3-0.4,0.8-0.7,1.5,0.1c0.3,0.4,1,0.5,1.4,0.2
			c1.6-1.2,4.9-3.5,5.9-3.3c1.3,0.3,2.1-0.8,2.5-0.4c0.4,0.5,2.5,1.4,2,2.4c-0.5,1-5.6,2-9.1,5.1c-3.2,2.8-5.3,4-6,6.6
			c-0.1,0.5,0.1,1,0.6,1.2l1.4,0.5c0.4,0.1,0.8,0.1,1.1-0.2c2.2-2.1,12.1-11.1,19.5-14c0.4-0.2,0.7-0.6,0.6-1
			c-0.1-1.1-0.7-3.2-3.4-7c0-0.1-0.1-0.1-0.1-0.2c-0.4-0.4-2.7-2.7,0.5-4c3.6-1.4,2-5.5,3-6.8c1-1.3,2.3-0.7,2.3,0.7
			s1.3,2.3,1.1,3.4c-0.2,1.1-3.5,3.5-2.5,4.9c0.8,1.3,6.5,3,7.9,3.5c0.2,0.1,0.4,0.1,0.6,0c1.5-0.5,8.1-2.5,14.4-1
			c0.2,0.1,0.5,0,0.7-0.1c1.4-0.8,6.6-3.7,8.2-6c0.2-0.2,0.4-0.4,0.7-0.5c0.4,0,0.9,0,1.1,0.3c0.4,0.6-0.1-0.7,0.3-1.3
			c0.4-0.7,1.6,0.1,2.5-2.9c0.9-3,2.2,1,3,1.4c0.8,0.4,3.3,1.6,4.4-1.1c0.1-0.2,0.2-0.4,0.3-0.6c0.6-1.1,2.2-0.4,1.9,0.8
			c-0.4,1.5-1.3,3.7-2.3,3.7c-1.2,0-2.7-0.1-3.5-0.1c-0.3,0-0.6,0.1-0.8,0.3c-1.1,1-4.1,4.3-1.9,7.4c0.2,0.3,0.5,0.4,0.8,0.4
			c1.5,0,6.2,0.2,8.3,1.5c2.5,1.6,5.1-0.8,15,0.8c0.2,0,0.3,0,0.5,0c0.9-0.3,3.9-1.5,4-4c0,0,0-0.1,0-0.1c0-1.1,1.6-1.4,2-0.3
			c0.4,1.1,0.9,2.2,1.8,2.8c1.9,1.1,7.1,3.3,6.3,5.6c-0.7,2-5.2-2-6.3-3c-0.2-0.2-0.4-0.2-0.6-0.3c-0.5,0-1.4,0-1.5,0.7
			c-0.2,0.9,2.5,0,3.9,3c0.1,0.3,0.4,0.5,0.7,0.6c1.1,0.3,3.6,1.4,2.1,4.5C-770.9,271.7-771,271.8-771.1,271.9z"/>
	</g>
	<g>
		<path class="st8" d="M-629.6,228.9c-2.1,0.4-18.9,3.7-28.8,0c-0.4-0.1-0.7-0.1-1,0.2c-1.8,1.6-8.2,6.9-12.1,5.1
			c-3.7-1.7-3.7-4.5-2.3-6.7c0.4-0.7,0-1.5-0.8-1.6c-3-0.2-8.9-0.6-14.4-1.6c-0.3-0.1-0.6,0-0.8,0.2c-2.5,1.7-18.3,11.5-56.2,2.1
			c-0.1,0-0.1,0-0.2,0c-0.9,0-7.4-0.1-11.2,8.9c0,0.1-0.1,0.1-0.1,0.2c-1.3,1.8-22.1,32,18.1,54.4c1.7,0.9,3.6,1.2,5.5,0.9
			c5.9-1.2,17.3-4.5,7.1-23.1c-11.8-21.4-19-2.9-19.9-0.2c-0.1,0.2-0.2,0.4-0.4,0.5c-0.9,0.5-3.2,1.6-1.5-3.5
			c2.1-6.2,8.4-10.6,13-9.9c7.3,1,15.2,13.2,16.1,25.5c1,14.1-17.2,15.3-19.2,14.4c-2.3-1.1-23-9.8-28.6-27.8
			c-4.7-15.2,6-34.6,9.5-40.3c0.5-0.9-0.4-1.9-1.4-1.4c-0.5,0.3-1.1,0.8-1.8,1.5c-2.4,2.6-4.3-0.5-4.7-1.1c0-0.1-0.1-0.2-0.2-0.2
			c-0.4-0.5-2.2-2.3-2.3-3.4c-0.1-1.2-2.5-0.6-3.1-1.8c-0.3-0.7,0.1-1.1,0.6-1.3c0.4-0.2,0.6-0.6,0.6-1c0-0.9,0.1-2.4,1-3.5
			c0.2-0.2,0.3-0.6,0.2-0.9c-0.2-0.7-0.3-1.8,0.8-1.7c1.5,0.1,1.5,1.2,1.5,1.2s-0.3-2.2,0.1-2.5c0.4-0.3,2.2-2,2.7,1
			c0,0.1,0.1,0.3,0.1,0.4c0.4,0.6,1.5,2.8-1.4,4.2c-2.8,1.3,0.5,4.2,1.7,5.1c0.2,0.2,0.6,0.3,0.9,0.2c0.8-0.2,2.5-0.9,2.8-2.8
			c0.4-2.7,4.2-9.6,8.9-10.8c4.7-1.1,6.8-6,17.6-9.5c0.2-0.1,0.4-0.2,0.5-0.4c0.7-1.1,3.2-4.8,5.5-5.9c0.5-0.3,0.7-0.9,0.5-1.4
			c-0.4-0.8-0.7-1.9-0.2-3c0.9-1.7,11.5-1.2,13.1-5.9c0.1-0.3,0.3-0.5,0.5-0.6c0.4-0.2,1.1-0.3,1.3,0.8c0.1,0.5,0.6,0.9,1.2,0.8
			c1.9-0.3,5.9-0.9,6.7-0.3c1.1,0.8,2.2,0.2,2.4,0.8c0.2,0.6,1.6,2.4,0.7,3.1c-0.9,0.7-5.9-0.7-10.4,0.4c-4.1,1-6.6,1.1-8.4,3.2
			c-0.4,0.4-0.4,1,0,1.4l1,1.1c0.3,0.3,0.7,0.4,1,0.3c2.9-0.9,15.8-4.4,23.7-3.6c0.5,0,0.9-0.2,1-0.6c0.4-1,0.8-3.2,0.1-7.8
			c0-0.1,0-0.1-0.1-0.2c-0.2-0.6-1.2-3.7,2.3-3.3c3.8,0.4,4.3-4,5.8-4.7c1.5-0.7,2.3,0.4,1.7,1.7c-0.7,1.2,0.1,2.6-0.6,3.5
			c-0.7,0.9-4.7,1.5-4.5,3.2c0.2,1.5,4.4,5.7,5.5,6.7c0.2,0.1,0.4,0.2,0.6,0.3c1.5,0.2,8.3,1.4,13.3,5.7c0.2,0.2,0.4,0.3,0.7,0.3
			c1.6,0,7.6-0.3,10.1-1.6c0.3-0.1,0.6-0.2,0.8-0.1c0.4,0.1,0.8,0.4,0.8,0.8c0.1,0.7,0.2-0.6,0.8-1.1s1.4,0.8,3.5-1.5
			c2.1-2.3,1.5,1.9,2.1,2.6c0.5,0.7,2.3,2.9,4.4,1c0.2-0.2,0.4-0.3,0.5-0.4c1-0.7,2.1,0.7,1.3,1.6c-1.1,1.2-2.8,2.7-3.7,2.2
			c-1.1-0.5-2.4-1.3-3-1.7c-0.2-0.1-0.5-0.2-0.8-0.1c-1.4,0.4-5.6,1.9-5,5.7c0,0.3,0.3,0.6,0.5,0.7c1.3,0.7,5.4,2.9,6.7,5.1
			c1.5,2.6,4.9,1.6,13,7.5c0.1,0.1,0.3,0.2,0.5,0.2c0.9,0.1,4.2,0.4,5.4-1.7c0,0,0-0.1,0-0.1c0.6-1,2.1-0.5,1.9,0.7
			c-0.2,1.1-0.2,2.4,0.3,3.3c1.2,1.9,4.8,6.2,3.1,7.8c-1.5,1.4-3.7-4.2-4.3-5.5c-0.1-0.2-0.2-0.4-0.4-0.5c-0.4-0.3-1.2-0.6-1.7-0.1
			c-0.6,0.7,2.2,1.2,2.1,4.5c0,0.3,0.1,0.6,0.3,0.8c0.8,0.8,2.6,2.9-0.2,4.9C-629.3,228.8-629.5,228.9-629.6,228.9z"/>
	</g>
	<g>
		<path class="st2" d="M-488,267.9c-1.9-0.8-17.5-7.8-23.6-16.6c-0.2-0.3-0.6-0.5-1-0.4c-2.3,0.3-10.6,0.9-12.8-2.8
			c-2.1-3.5-0.5-5.8,1.9-6.8c0.7-0.3,0.9-1.3,0.2-1.8c-2.4-1.9-7-5.6-10.9-9.6c-0.2-0.2-0.5-0.3-0.7-0.3c-3,0-21.6-1.1-47.2-30.6
			c0,0-0.1-0.1-0.1-0.1c-0.7-0.6-6-4.3-14.3,0.9c-0.1,0-0.1,0.1-0.2,0.1c-2.1,0.7-36.5,13.5-16.5,55c0.8,1.7,2.2,3.1,4,3.8
			c5.5,2.5,16.8,6.3,19.1-14.8c2.7-24.3-13.9-13.3-16.2-11.6c-0.2,0.1-0.4,0.2-0.7,0.2c-1-0.1-3.5-0.6,0.8-3.7
			c5.3-3.9,12.9-3.8,16.3-0.7c5.4,5,4.8,19.5-1.5,30.1c-7.3,12.1-22.8,2.7-24,0.7c-1.3-2.2-13.2-21.2-7.4-39.2
			c4.9-15.2,24.8-24.9,30.9-27.5c1-0.4,0.8-1.9-0.3-2c-0.6-0.1-1.4,0-2.4,0.2c-3.5,0.8-3.3-2.9-3.2-3.6c0-0.1,0-0.2,0-0.3
			c-0.1-0.6-0.5-3.2,0.1-4.1c0.6-1.1-1.7-1.9-1.5-3.3c0.1-0.8,0.8-0.9,1.3-0.8c0.4,0.1,0.8-0.1,1-0.4c0.5-0.7,1.5-1.9,2.9-2.3
			c0.3-0.1,0.5-0.3,0.7-0.6c0.2-0.6,0.8-1.6,1.6-0.9c1.2,0.9,0.6,1.9,0.6,1.9s1-2,1.5-2c0.5,0,3-0.4,1.6,2.3
			c-0.1,0.1-0.1,0.3-0.1,0.4c0,0.7-0.4,3.2-3.5,2.6c-3.1-0.5-2,3.7-1.6,5.1c0.1,0.3,0.3,0.5,0.6,0.7c0.8,0.3,2.5,0.7,3.9-0.7
			c1.9-2,9-5.5,13.5-3.7c4.5,1.7,9-0.9,19.8,2.3c0.2,0.1,0.5,0.1,0.7,0c1.2-0.5,5.4-2,8-1.7c0.6,0.1,1.1-0.3,1.2-0.8
			c0.1-0.9,0.5-2,1.5-2.5c1.8-0.9,10.1,5.6,14.1,2.7c0.2-0.2,0.5-0.2,0.8-0.2c0.5,0.1,1,0.4,0.6,1.4c-0.2,0.5,0,1.1,0.5,1.3
			c1.8,0.9,5.3,2.7,5.6,3.6c0.4,1.3,1.7,1.4,1.5,2c-0.2,0.6-0.1,2.9-1.2,2.9c-1.1,0.1-4.4-4-8.8-5.7c-3.9-1.5-6-2.8-8.7-2.2
			c-0.5,0.1-0.9,0.6-0.8,1.1l0.2,1.5c0,0.4,0.3,0.7,0.7,0.8c2.9,1,15.4,5.5,21.5,10.7c0.3,0.3,0.8,0.3,1.2,0.1
			c0.9-0.6,2.5-2.1,4.6-6.3c0-0.1,0.1-0.1,0.1-0.2c0.2-0.6,1.1-3.7,3.8-1.4c2.9,2.5,5.8-0.8,7.5-0.5c1.6,0.3,1.7,1.7,0.4,2.3
			s-1.4,2.2-2.5,2.5c-1.1,0.3-4.7-1.5-5.5,0.1c-0.7,1.3,0.3,7.2,0.6,8.6c0,0.2,0.1,0.4,0.3,0.5c1.1,1.1,6,6,7.6,12.3
			c0.1,0.2,0.2,0.5,0.4,0.6c1.3,0.9,6.4,4.1,9.2,4.5c0.3,0,0.6,0.2,0.7,0.4c0.2,0.3,0.4,0.8,0.2,1.1c-0.3,0.6,0.5-0.4,1.3-0.4
			s0.7,1.5,3.7,0.8c3-0.6,0.2,2.4,0.2,3.3c0,0.9,0.2,3.7,3.1,3.4c0.3,0,0.5,0,0.7,0c1.2,0,1.4,1.8,0.2,2c-1.6,0.3-3.8,0.6-4.4-0.3
			c-0.6-1.1-1.2-2.4-1.5-3.1c-0.1-0.3-0.3-0.5-0.6-0.6c-1.4-0.5-5.7-1.7-7.4,1.8c-0.1,0.3-0.1,0.6,0,0.9c0.7,1.3,2.7,5.5,2.5,8.1
			c-0.3,3,3.1,4.1,6.3,13.6c0.1,0.2,0.1,0.3,0.3,0.4c0.7,0.6,3.2,2.7,5.4,1.7c0,0,0.1,0,0.1,0c1-0.5,2,0.8,1.2,1.7
			c-0.8,0.8-1.6,1.9-1.6,2.9c-0.1,2.2,0.4,7.9-2,8.2c-2.1,0.3-0.7-5.6-0.3-7c0.1-0.2,0-0.4,0-0.7c-0.2-0.5-0.6-1.2-1.3-1
			c-0.9,0.3,1.2,2.2-0.9,4.9c-0.2,0.2-0.3,0.5-0.2,0.8c0.2,1.1,0.4,3.9-3,3.9C-487.8,268-487.9,267.9-488,267.9z"/>
	</g>
	<g>
		<path class="st9" d="M-384.5,370c-1.2-1.7-10.8-15.9-11.4-26.5c0-0.4-0.2-0.7-0.6-0.9c-2.1-1-9.5-4.8-9.4-9.2
			c0.1-4.1,2.7-5.2,5.2-4.8c0.8,0.1,1.4-0.6,1.1-1.4c-1.1-2.8-3-8.4-4.2-13.9c-0.1-0.3-0.2-0.5-0.5-0.7
			c-2.6-1.6-17.8-12.3-24.1-50.8c0-0.1,0-0.1,0-0.2c-0.3-0.9-2.9-6.9-12.6-6.7c-0.1,0-0.2,0-0.2,0c-2.2-0.5-38.1-7.7-42.9,38.1
			c-0.2,1.9,0.3,3.8,1.4,5.4c3.4,5,11,14.1,24-2.6c15-19.2-4.8-18.6-7.7-18.4c-0.2,0-0.5-0.1-0.7-0.2c-0.8-0.6-2.7-2.3,2.7-2.7
			c6.6-0.5,13,3.6,14.2,8c1.9,7.1-6.2,19.2-17.1,24.8c-12.6,6.5-20.8-9.8-20.8-12c0.1-2.6-0.1-25,14.3-37.2
			c12.2-10.3,34.2-8.1,40.7-7.1c1,0.1,1.6-1.2,0.8-1.8c-0.5-0.4-1.2-0.7-2.1-1.1c-3.4-1.2-1.3-4.1-0.8-4.7c0.1-0.1,0.1-0.1,0.1-0.2
			c0.2-0.6,1.3-2.9,2.2-3.5c1.1-0.6-0.5-2.6,0.5-3.6c0.5-0.6,1.1-0.3,1.5,0c0.3,0.3,0.7,0.3,1.1,0.2c0.8-0.4,2.2-0.8,3.6-0.4
			c0.3,0.1,0.6,0,0.9-0.2c0.5-0.4,1.5-0.9,1.9,0.1c0.5,1.4-0.5,1.9-0.5,1.9s1.9-1.2,2.3-0.9c0.4,0.2,2.7,1.3,0.1,2.8
			c-0.1,0.1-0.2,0.2-0.3,0.3c-0.4,0.6-2,2.5-4.4,0.4c-2.3-2-3.7,2.1-4.1,3.5c-0.1,0.3,0,0.6,0.2,0.9c0.5,0.7,1.8,1.9,3.7,1.4
			c2.6-0.7,10.5,0.1,13.4,3.9c2.9,3.8,8.2,3.9,15.6,12.4c0.2,0.2,0.4,0.3,0.6,0.3c1.3,0.2,5.6,1.1,7.6,2.8c0.4,0.4,1.1,0.3,1.4-0.1
			c0.6-0.7,1.5-1.4,2.6-1.3c2,0.2,5.7,10.1,10.6,9.7c0.3,0,0.6,0.1,0.8,0.3c0.4,0.3,0.7,0.9-0.2,1.5c-0.4,0.3-0.6,0.9-0.3,1.4
			c1.1,1.7,3.1,5.1,2.9,6.1c-0.4,1.3,0.7,2.1,0.2,2.5s-1.6,2.4-2.6,1.9c-1-0.5-1.6-5.7-4.5-9.4c-2.5-3.4-3.6-5.6-6.2-6.5
			c-0.5-0.2-1.1,0.1-1.3,0.5l-0.6,1.4c-0.2,0.4-0.1,0.8,0.1,1.1c1.9,2.4,10.3,12.8,12.6,20.4c0.1,0.4,0.5,0.7,1,0.7
			c1.1,0,3.3-0.5,7.2-2.9c0.1,0,0.1-0.1,0.2-0.1c0.4-0.4,2.9-2.5,4,0.8c1.2,3.7,5.4,2.4,6.6,3.5c1.2,1.1,0.5,2.3-0.9,2.2
			s-2.4,1.1-3.4,0.9c-1.1-0.3-3.2-3.7-4.7-2.8c-1.3,0.8-3.5,6.3-4,7.7c-0.1,0.2-0.1,0.4,0,0.6c0.4,1.5,2,8.2,0,14.4
			c-0.1,0.2-0.1,0.5,0,0.7c0.7,1.5,3.2,6.9,5.4,8.6c0.2,0.2,0.4,0.5,0.4,0.7c0,0.4,0,0.9-0.4,1.1c-0.6,0.3,0.7-0.1,1.3,0.4
			c0.7,0.4-0.2,1.6,2.7,2.7c2.9,1.1-1.1,2.1-1.6,2.9c-0.5,0.8-1.8,3.2,0.8,4.5c0.2,0.1,0.4,0.2,0.6,0.3c1,0.7,0.2,2.2-0.9,1.8
			c-1.5-0.6-3.6-1.5-3.5-2.6c0-1.2,0.3-2.7,0.4-3.4c0-0.3,0-0.6-0.2-0.8c-0.9-1.1-4-4.4-7.2-2.4c-0.3,0.2-0.4,0.5-0.5,0.8
			c-0.1,1.5-0.6,6.1-2.1,8.2c-1.8,2.4,0.5,5.1-1.8,14.9c0,0.2,0,0.3,0,0.5c0.2,0.9,1.3,4,3.7,4.2c0,0,0.1,0,0.1,0
			c1.1,0.1,1.2,1.7,0.1,2c-1.1,0.3-2.3,0.8-2.9,1.6c-1.3,1.8-3.8,6.9-6,5.9c-1.9-0.9,2.4-5.1,3.4-6.1c0.2-0.2,0.3-0.4,0.3-0.6
			c0.1-0.5,0.1-1.4-0.6-1.6c-0.9-0.3-0.2,2.5-3.3,3.7c-0.3,0.1-0.5,0.3-0.6,0.6c-0.4,1.1-1.7,3.5-4.6,1.8
			C-384.4,370.2-384.5,370.1-384.5,370z"/>
	</g>
	<g>
		<path class="st3" d="M-345.2,509.6c-0.1-2.1-1.1-19.2,3.9-28.6c0.2-0.3,0.2-0.7-0.1-1c-1.3-1.9-5.7-9-3.4-12.7
			c2.2-3.4,5-3.1,6.9-1.4c0.6,0.5,1.5,0.2,1.7-0.6c0.6-3,1.8-8.8,3.6-14.1c0.1-0.3,0.1-0.6-0.1-0.8c-1.4-2.7-8.9-19.7,5.6-56
			c0-0.1,0-0.1,0.1-0.2c0.2-0.9,1.1-7.4-7.3-12.3c-0.1,0-0.1-0.1-0.2-0.1c-1.6-1.6-28.7-26.3-56.4,10.5c-1.1,1.5-1.7,3.4-1.6,5.3
			c0.3,6,2.1,17.8,21.9,10.2c22.8-8.7,5.4-18.4,2.9-19.7c-0.2-0.1-0.4-0.3-0.5-0.5c-0.4-1-1.1-3.4,3.7-1c5.9,2.9,9.3,9.8,8.1,14.2
			c-2,7.1-15.2,13.3-27.4,12.5c-14.1-0.9-12.8-19.1-11.6-21c1.4-2.2,12.8-21.4,31.4-24.5c15.7-2.6,33.5,10.7,38.6,14.9
			c0.8,0.7,2-0.2,1.6-1.2c-0.2-0.6-0.6-1.2-1.3-2c-2.3-2.7,1-4.2,1.7-4.5c0.1,0,0.2-0.1,0.2-0.1c0.5-0.4,2.6-1.9,3.7-1.8
			c1.2,0,0.9-2.4,2.3-2.8c0.8-0.2,1.1,0.3,1.3,0.8c0.1,0.4,0.5,0.7,0.9,0.7c0.9,0.1,2.3,0.4,3.3,1.5c0.2,0.2,0.5,0.3,0.8,0.3
			c0.7-0.1,1.8,0,1.6,1c-0.3,1.5-1.4,1.4-1.4,1.4s2.2,0,2.4,0.4c0.2,0.4,1.7,2.5-1.3,2.5c-0.1,0-0.3,0-0.4,0.1c-0.7,0.3-3,1.1-4-1.9
			c-1-3-4.2-0.1-5.3,0.9c-0.2,0.2-0.3,0.5-0.3,0.8c0.1,0.9,0.5,2.6,2.4,3.1c2.6,0.8,9,5.5,9.5,10.3c0.5,4.8,5,7.6,7,18.7
			c0,0.2,0.2,0.4,0.3,0.6c1,0.8,4.3,3.8,5.1,6.3c0.2,0.5,0.7,0.8,1.3,0.7c0.8-0.3,2-0.4,2.9,0.2c1.6,1.2-0.4,11.6,4.1,13.8
			c0.3,0.1,0.4,0.3,0.5,0.6c0.1,0.5,0.1,1.1-0.9,1.2c-0.5,0-0.9,0.5-0.9,1c0.1,2,0.1,6-0.7,6.7c-1,0.9-0.5,2.2-1.1,2.2
			s-2.6,1.3-3.2,0.3s1.5-5.7,1-10.4c-0.5-4.2-0.2-6.7-2-8.8c-0.3-0.4-0.9-0.5-1.4-0.2l-1.2,0.8c-0.3,0.2-0.5,0.6-0.4,1
			c0.4,3,2.2,16.2,0.3,24c-0.1,0.4,0.1,0.9,0.5,1.1c0.9,0.5,3.1,1.2,7.7,1.2c0.1,0,0.1,0,0.2,0c0.6-0.1,3.8-0.7,3,2.7
			c-0.9,3.7,3.4,4.8,3.9,6.4c0.5,1.6-0.8,2.3-1.9,1.4c-1.1-0.8-2.6-0.2-3.4-1c-0.8-0.8-0.8-4.8-2.6-4.9c-1.5,0-6.2,3.6-7.4,4.5
			c-0.2,0.1-0.3,0.3-0.3,0.5c-0.4,1.5-2.5,8.1-7.5,12.4c-0.2,0.2-0.3,0.4-0.4,0.7c-0.2,1.6-0.8,7.6,0.2,10.2c0.1,0.3,0.1,0.6,0,0.8
			c-0.2,0.3-0.5,0.7-0.9,0.7c-0.7,0,0.6,0.3,0.9,1c0.3,0.7-1,1.3,1,3.7s-2,1.3-2.8,1.7s-3.2,1.8-1.6,4.2c0.1,0.2,0.3,0.4,0.3,0.6
			c0.5,1.1-1,2-1.7,1.1c-1-1.3-2.3-3.1-1.7-4c0.7-1,1.6-2.2,2.1-2.8c0.2-0.2,0.3-0.5,0.2-0.8c-0.2-1.4-1.1-5.8-5-5.7
			c-0.3,0-0.6,0.2-0.8,0.4c-0.9,1.2-3.7,5-6,5.9c-2.8,1.1-2.2,4.6-9.2,11.8c-0.1,0.1-0.2,0.3-0.2,0.4c-0.3,0.9-1,4.1,1,5.5
			c0,0,0.1,0,0.1,0.1c0.9,0.7,0.2,2.1-0.9,1.8c-1.1-0.3-2.4-0.5-3.3-0.1c-2,0.9-6.8,3.9-8.2,2c-1.2-1.7,4.6-3.1,6.1-3.5
			c0.2,0,0.4-0.2,0.6-0.3c0.3-0.4,0.8-1.1,0.3-1.6c-0.7-0.7-1.5,2.1-4.7,1.5c-0.3-0.1-0.6,0-0.8,0.2c-0.9,0.7-3.3,2.1-4.9-0.9
			C-345.1,509.9-345.2,509.7-345.2,509.6z"/>
	</g>
</g>
</svg>
